<?xml version="1.0" encoding="utf-8"?>
<!-- Generator: Adobe Illustrator 21.0.2, SVG Export Plug-In . SVG Version: 6.00 Build 0)  -->
<svg version="1.1" id="Ebene_1" xmlns="http://www.w3.org/2000/svg" xmlns:xlink="http://www.w3.org/1999/xlink" x="0px" y="0px"
	 viewBox="0 0 1620 153" style="enable-background:new 0 0 1620 153;" xml:space="preserve">
<style type="text/css">
	.st0{fill:#509FB9;}
	.st1{fill:#A0ACB3;}
</style>
<g>
	<path class="st0" d="M33,20.9"/>
	<path class="st0" d="M33,130.1"/>
	<path class="st0" d="M33.4,20.9c0-6-4.9-10.9-10.9-10.9s-10.9,4.9-10.9,10.9c0,0,0,0,0,0h0v109.2c0,6,4.9,10.9,10.9,10.9
		s10.9-4.9,10.9-10.9V20.9L33.4,20.9C33.4,20.9,33.4,20.9,33.4,20.9z"/>
	<path class="st0" d="M598.8,119c0-6-4.9-10.9-10.9-10.9S577,113,577,119c0,0,0,0,0,0h0v11.1c0,6,4.9,10.9,10.9,10.9
		s10.9-4.9,10.9-10.9V119L598.8,119C598.8,119,598.8,119,598.8,119z"/>
	<path class="st0" d="M490.1,69.9c0-6-4.9-10.9-10.9-10.9c-6,0-10.9,4.9-10.9,10.9c0,0,0,0,0,0h0V81c0,6,4.9,10.9,10.9,10.9
		c6,0,10.9-4.9,10.9-10.9V69.9L490.1,69.9C490.1,70,490.1,69.9,490.1,69.9z"/>
	<path class="st0" d="M75.2,69.9c0-6-4.9-10.9-10.9-10.9s-10.9,4.9-10.9,10.9c0,0,0,0,0,0h0V81c0,6,4.9,10.9,10.9,10.9
		S75.2,87,75.2,81V69.9L75.2,69.9C75.2,70,75.2,69.9,75.2,69.9z"/>
	<path class="st0" d="M117,20.9c0-6-4.9-10.9-10.9-10.9s-10.9,4.9-10.9,10.9c0,0,0,0,0,0h0v109.2c0,6,4.9,10.9,10.9,10.9
		s10.9-4.9,10.9-10.9V20.9L117,20.9C117,20.9,117,20.9,117,20.9z"/>
	<path class="st0" d="M448.3,20.9c0-6-4.9-10.9-10.9-10.9c-6,0-10.9,4.9-10.9,10.9c0,0,0,0,0,0h0v109.2c0,6,4.9,10.9,10.9,10.9
		c6,0,10.9-4.9,10.9-10.9V20.9L448.3,20.9C448.3,20.9,448.3,20.9,448.3,20.9z"/>
	<path class="st0" d="M337.9,37.2c0-6-4.9-10.9-10.9-10.9c-6,0-10.9,4.9-10.9,10.9c0,0,0,0,0,0h0v76.5c0,6,4.9,10.9,10.9,10.9
		c6,0,10.9-4.9,10.9-10.9V37.2L337.9,37.2C337.9,37.2,337.9,37.2,337.9,37.2z"/>
	<path class="st0" d="M185.7,69.9c0-6-4.9-10.9-10.9-10.9c-6,0-10.9,4.9-10.9,10.9c0,0,0,0,0,0h0v60.1c0,6,4.9,10.9,10.9,10.9
		c6,0,10.9-4.9,10.9-10.9V69.9L185.7,69.9C185.7,70,185.7,69.9,185.7,69.9z"/>
	<path class="st0" d="M269.2,69.9c0-6-4.9-10.9-10.9-10.9c-6,0-10.9,4.9-10.9,10.9c0,0,0,0,0,0h0v60.1c0,6,4.9,10.9,10.9,10.9
		c6,0,10.9-4.9,10.9-10.9V69.9L269.2,69.9C269.2,70,269.2,69.9,269.2,69.9z"/>
	<path class="st0" d="M227.4,20.9c0-6-4.9-10.9-10.9-10.9s-10.9,4.9-10.9,10.9c0,0,0,0,0,0h0v76.5c0,6,4.9,10.9,10.9,10.9
		s10.9-4.9,10.9-10.9V20.9L227.4,20.9C227.4,20.9,227.4,20.9,227.4,20.9z"/>
	<path class="st0" d="M379.7,20.9c0-6-4.9-10.9-10.9-10.9c-6,0-10.9,4.9-10.9,10.9c0,0,0,0,0,0h0v27.3c0,6,4.9,10.9,10.9,10.9
		c6,0,10.9-4.9,10.9-10.9V20.9L379.7,20.9C379.7,20.9,379.7,20.9,379.7,20.9z"/>
	<path class="st0" d="M379.7,102.8c0-6-4.9-10.9-10.9-10.9c-6,0-10.9,4.9-10.9,10.9c0,0,0,0,0,0h0v27.3c0,6,4.9,10.9,10.9,10.9
		c6,0,10.9-4.9,10.9-10.9V102.8L379.7,102.8C379.7,102.8,379.7,102.8,379.7,102.8z"/>
	<path class="st0" d="M531.9,20.9c0-6-4.9-10.9-10.9-10.9c-6,0-10.9,4.9-10.9,10.9c0,0,0,0,0,0h0v27.3c0,6,4.9,10.9,10.9,10.9
		c6,0,10.9-4.9,10.9-10.9V20.9L531.9,20.9C531.9,20.9,531.9,20.9,531.9,20.9z"/>
	<path class="st0" d="M531.9,102.8c0-6-4.9-10.9-10.9-10.9c-6,0-10.9,4.9-10.9,10.9c0,0,0,0,0,0h0v27.3c0,6,4.9,10.9,10.9,10.9
		c6,0,10.9-4.9,10.9-10.9V102.8L531.9,102.8C531.9,102.8,531.9,102.8,531.9,102.8z"/>
	<path class="st1" d="M1375.6,13.2c0-1-0.8-1.8-1.8-1.8h-26.1l0,0h0c-1,0-1.8,0.8-1.8,1.8l0,0v74.1c0,4.5-0.6,8.5-1.7,12.1
		c-1.1,3.5-2.8,6.6-5,9c-2.2,2.5-4.8,4.4-8,5.7c-3.1,1.3-6.7,2-10.7,2c-4,0-7.5-0.7-10.7-2c-3.1-1.3-5.8-3.2-8-5.7
		c-2.2-2.5-3.8-5.5-5-9.1c-1.1-3.5-1.7-7.6-1.7-12.1v-74c0,0,0,0,0,0c0-1-0.8-1.8-1.8-1.8v0h-26.1l0,0c-1,0-1.8,0.8-1.8,1.8l0,0
		v74.1c0,7.9,1.3,15.1,3.8,21.6c2.5,6.6,6.2,12.2,10.9,17s10.5,8.4,17.3,11.1c6.8,2.6,14.5,4,23,4c8.5,0,16.1-1.3,22.9-4
		c6.8-2.6,12.6-6.3,17.3-11.1c4.7-4.7,8.4-10.4,11-17c2.6-6.6,3.8-13.8,3.8-21.6V13.2L1375.6,13.2z"/>
	<path class="st1" d="M1053.5,11.4L1053.5,11.4L1053.5,11.4h-98.2c-1,0-1.8,0.8-1.8,1.8v0v20l0,0c0,1,0.8,1.8,1.8,1.8l0,0h32.4v0
		c1,0,1.8,0.8,1.8,1.8v101c0,0,0,0,0,0c0,1,0.8,1.8,1.8,1.8l0,0l0,0h26.1l0,0l0,0c1,0,1.8-0.8,1.8-1.8l0,0v-101h0
		c0-1,0.8-1.8,1.8-1.8v0h32.4l0,0c1,0,1.8-0.8,1.8-1.8l0,0v-20v0C1055.3,12.2,1054.5,11.4,1053.5,11.4z"/>
	<path class="st1" d="M673.8,13.2c0-1-0.8-1.8-1.8-1.8l0,0v0h-26.3l0,0c-1,0-1.8,0.8-1.8,1.8v0l0,0v124.5l0,0c0,1,0.8,1.8,1.8,1.8
		l0,0l0,0H672l0,0c1,0,1.8-0.8,1.8-1.8l0,0V13.2L673.8,13.2L673.8,13.2z"/>
	<path class="st1" d="M816,11.4h-22.6c-1,0-1.8,0.8-1.8,1.8l0,0v63.4v2.6v7.6c0,1-0.8,1.8-1.8,1.8c-0.6,0-1.1-0.3-1.4-0.7l0,0v0
		L731.4,16c-0.8-1-1.6-1.8-2.2-2.4c-0.6-0.6-1.3-1-2-1.4c-0.7-0.3-1.5-0.5-2.4-0.7c-0.9-0.1-2-0.2-3.2-0.2h-13.9l0,0
		c-1,0-1.8,0.8-1.8,1.8v0v124.5c0,1,0.8,1.8,1.8,1.8l0,0h22.6h0c1,0,1.8-0.8,1.8-1.8c0,0,0,0,0,0V70.9c0-0.8,0-1.7,0-2.6v-4.1l0,0
		c0-1,0.8-1.8,1.8-1.8c0.6,0,1.1,0.2,1.4,0.6l56.6,71.6c1.5,1.8,3.1,3.1,4.6,3.8c1.6,0.7,3.5,1.1,5.8,1.1H816v0c1,0,1.8-0.8,1.8-1.8
		v0V13.2c0,0,0,0,0,0C817.8,12.2,817,11.4,816,11.4z"/>
	<path class="st1" d="M931.6,84.8c-1.6-3.8-3.8-7-6.5-9.6c-2.7-2.6-5.7-4.8-9.1-6.5c-3.4-1.7-6.9-3.2-10.5-4.4
		c-3.6-1.3-7.1-2.4-10.5-3.4c-3.4-1-6.5-2.2-9.1-3.4c-2.7-1.2-4.8-2.7-6.5-4.4s-2.5-3.8-2.5-6.4c0-4,1.4-7.3,4.1-9.6
		c2.7-2.4,6.9-3.6,12.4-3.6c3.2,0,6.1,0.4,8.6,1.3c2.5,0.9,4.8,1.8,6.7,2.9c2,1.1,3.7,2,5.3,2.9c1.6,0.9,3,1.3,4.4,1.3
		c1.5,0,2.8-0.4,3.7-1.1c1-0.7,1.9-1.8,2.8-3.2l6.7-12.6l0,0c0.1-0.2,0.2-0.5,0.2-0.8c0-0.5-0.2-1-0.6-1.3c-2-1.7-4.3-3.4-6.7-4.8
		c-2.9-1.7-6-3.1-9.4-4.3c-3.3-1.2-6.9-2.1-10.6-2.7c-3.7-0.6-7.5-0.9-11.5-0.9c-7,0-13.3,1.1-18.7,3.2c-5.5,2.1-10.1,5-13.8,8.6
		c-3.8,3.6-6.6,7.7-8.5,12.2s-2.9,9.3-2.9,14.1c0,6,0.8,11,2.5,15.1s3.8,7.5,6.5,10.2c2.7,2.7,5.7,4.9,9.1,6.6
		c3.4,1.7,6.9,3.1,10.5,4.2c3.6,1.1,7.1,2.2,10.5,3.1c3.4,0.9,6.4,2,9.1,3.3c2.7,1.2,4.8,2.8,6.5,4.7c1.6,1.9,2.5,4.3,2.5,7.3
		c0,5.2-1.5,8.9-4.5,11.3c-3,2.4-7.2,3.6-12.6,3.6c-4,0-7.4-0.6-10.4-1.7c-2.9-1.1-5.5-2.3-7.8-3.7c-2.3-1.3-4.3-2.6-6.1-3.7
		c-1.8-1.1-3.6-1.7-5.3-1.7c-1.3,0-2.6,0.3-3.7,1c-1.1,0.7-2.1,1.5-2.8,2.5l-8,12.6c-0.2,0.3-0.3,0.6-0.3,1c0,0.5,0.2,1,0.6,1.3
		c2.3,2.1,4.9,4,7.8,5.8c3.4,2.1,7,3.8,10.9,5.3c3.9,1.5,7.9,2.7,12,3.5c4.1,0.8,8.2,1.2,12.2,1.2c7.3,0,13.8-1.1,19.5-3.3
		c5.7-2.2,10.5-5.2,14.4-9.1c3.9-3.8,6.9-8.3,8.9-13.5c2-5.2,3.1-10.7,3.1-16.6C934,93.1,933.2,88.6,931.6,84.8z"/>
	<path class="st1" d="M1111.8,13.2c0-1-0.8-1.8-1.8-1.8l0,0v0h-26.3l0,0c-1,0-1.8,0.8-1.8,1.8v0l0,0v124.5l0,0c0,1,0.8,1.8,1.8,1.8
		l0,0v0h26.3l0,0c1,0,1.8-0.8,1.8-1.8l0,0V13.2L1111.8,13.2L1111.8,13.2z"/>
	<path class="st1" d="M1239,11.4L1239,11.4L1239,11.4h-98.2c-1,0-1.8,0.8-1.8,1.8v0v20v0c0,1,0.8,1.8,1.8,1.8l0,0h32.4v0
		c1,0,1.8,0.8,1.8,1.8v101c0,0,0,0,0,0c0,1,0.8,1.8,1.8,1.8l0,0v0h26.1l0,0l0,0c1,0,1.8-0.8,1.8-1.8l0,0v-101h0c0-1,0.8-1.8,1.8-1.8
		v0h32.4l0,0c1,0,1.8-0.8,1.8-1.8l0,0v-20v0C1240.8,12.2,1240,11.4,1239,11.4z"/>
	<path class="st1" d="M1500.7,11.4L1500.7,11.4L1500.7,11.4h-98.2c-1,0-1.8,0.8-1.8,1.8v0v20v0c0,1,0.8,1.8,1.8,1.8l0,0h32.4v0
		c1,0,1.8,0.8,1.8,1.8v101c0,0,0,0,0,0c0,1,0.8,1.8,1.8,1.8l0,0v0h26.1l0,0l0,0c1,0,1.8-0.8,1.8-1.8l0,0v-101h0c0-1,0.8-1.8,1.8-1.8
		v0h32.4l0,0c1,0,1.8-0.8,1.8-1.8l0,0v-20v0C1502.5,12.2,1501.7,11.4,1500.7,11.4z"/>
	<path class="st1" d="M1609.9,11.4L1609.9,11.4L1609.9,11.4h-78.8c-1,0-1.8,0.8-1.8,1.8v0v10v10v84.6v0v7.3v12.7v0
		c0,1,0.8,1.8,1.8,1.8l0,0h78.8l0,0c1,0,1.8-0.8,1.8-1.8v0v-20v0c0-1-0.8-1.8-1.8-1.8l0,0l0,0h-49v0l0,0c-1,0-1.8-0.8-1.8-1.7h0
		V88.1c0-1,0.8-1.8,1.8-1.8h38.5l0,0c1,0,1.8-0.8,1.8-1.8v0V66.1v0c0-1-0.8-1.8-1.8-1.8l0,0l0,0h-38.5v0c-1,0-1.8-0.8-1.8-1.8V36.8
		c0-1,0.8-1.8,1.8-1.8v0h49l0,0c1,0,1.8-0.8,1.8-1.8v0v-20v0C1611.7,12.2,1610.9,11.4,1609.9,11.4z"/>
</g>
</svg>
